<mxfile host="app.diagrams.net" modified="2024-04-06T09:44:12.923Z" agent="Mozilla/5.0 (Windows NT 10.0; Win64; x64) AppleWebKit/537.36 (KHTML, like Gecko) Chrome/123.0.0.0 Safari/537.36" version="24.2.2" etag="BNX6DXwHTSRa6IA_QrYR" type="github">
  <diagram name="Page-1" id="Wlo0KWC8z3L4H3vBIL3-">
    <mxGraphModel>
      <root>
        <mxCell id="0" />
        <mxCell id="1" parent="0" />
      </root>
    </mxGraphModel>
  </diagram>
</mxfile>
